# 3Q Technologies Ltd.
# 3D Surface file output
# File type: ASCII OBJ
# All enquiries to : support@3q.com
# COPYRIGHT: (c) 1998-2002 3Q Technologies Ltd.
# COMMERCIAL IN CONFIDENCE.

mtllib Scans/FullVolium/meshes/FullVolium.000177.mtl

v -553.967102 -116.823914 60.180359
v -558.603027 -116.296982 57.411705
v -549.802002 -115.103607 57.901329
v -558.162354 -118.385712 62.281090
v -553.879150 -119.215042 64.597458
v -549.645569 -117.351181 62.793617
v -553.824158 -121.957642 68.377258
v -557.937500 -121.128998 66.070648
v -557.837036 -123.998924 69.286331
v -554.257935 -125.237915 71.184158
v -549.809204 -119.942932 66.542542
v -549.950439 -123.091583 69.702408
v -561.905334 -123.692566 67.329666
v -565.807617 -123.208008 64.360886
v -565.725281 -126.774338 68.614487
v -569.791504 -126.230057 66.200974
v -560.494507 -127.306747 71.718391
v -561.436646 -131.103394 74.257690
v -570.237915 -129.428406 69.492188
v -565.281250 -129.305786 71.350861
v -562.245483 -120.135376 63.189430
v -566.826294 -119.699097 58.620262
v -569.428894 -123.003647 62.124645
v -554.438232 -128.597534 74.358459
v -550.112122 -126.156616 73.059692
v -572.748901 -121.918610 59.555580
v -572.444641 -118.599167 53.654327
v -577.214966 -122.160355 55.530701
v -577.368774 -125.730682 59.928902
v -579.256409 -120.633224 48.984734
v -580.883911 -122.867180 51.939102
v -585.176758 -126.409683 51.391273
v -581.437134 -125.803391 55.604698
v -567.908325 -116.193298 52.253273
v -585.882202 -129.708588 55.815773
v -589.241455 -130.142609 52.054077
v -590.416321 -133.930145 56.861816
v -585.403259 -131.936035 60.054504
v -589.723999 -128.232056 46.167381
v -581.700195 -128.990112 59.593048
v -581.639832 -131.921539 64.923584
v -577.540710 -128.882507 64.109215
v -573.291870 -125.644852 63.756134
v -563.805176 -116.420181 54.892181
v -564.486755 -113.845474 49.733032
v -570.108032 -114.201004 45.929848
v -559.631714 -114.127441 52.347015
v -560.113037 -111.568344 47.409271
v -545.798218 -117.973022 64.697769
v -545.928833 -115.561066 59.945976
v -545.745239 -121.156342 68.157608
v -541.610046 -119.334183 66.482834
v -541.939819 -116.324875 62.193916
v -541.896179 -113.944946 57.907631
v -537.539368 -117.563843 64.693649
v -537.685913 -114.934967 60.050049
v -545.814087 -113.188599 55.817070
v -550.104980 -112.401657 53.230858
v -550.109131 -109.867325 48.645592
v -554.695862 -111.689835 50.778969
v -554.459290 -114.151169 55.456093
v -545.768311 -110.806229 51.055519
v -545.714111 -108.139862 47.067329
v -547.851074 -106.198341 40.244995
v -550.106567 -107.117035 44.707214
v -541.310913 -109.358597 49.735161
v -542.356567 -107.323639 43.163971
v -537.104492 -108.619133 47.666588
v -541.541870 -111.568069 53.850883
v -554.567505 -109.037125 45.842987
v -537.504028 -112.719620 55.852165
v -533.426636 -116.666016 61.941406
v -533.007812 -114.249023 58.131157
v -550.598267 -129.832047 76.075760
v -554.373718 -132.398590 77.300720
v -557.899048 -135.045166 77.990723
v -554.330139 -135.776093 80.119217
v -550.653320 -137.152771 82.491333
v -550.800293 -133.591705 79.459625
v -547.040894 -134.460510 81.176895
v -547.070557 -131.511566 78.165665
v -547.184082 -128.347504 75.132935
v -543.269287 -133.102448 79.593903
v -542.854004 -129.342072 76.383392
v -543.427917 -136.551117 81.890625
v -539.483582 -134.391052 80.362198
v -539.591309 -131.618622 78.412354
v -535.704712 -132.673126 79.752502
v -535.587891 -136.617645 81.180786
v -532.081299 -134.075195 80.133606
v -536.395386 -128.898483 76.093391
v -532.233643 -130.858826 77.641434
v -528.595764 -136.495514 80.790405
v -528.791748 -133.061951 77.957962
v -528.822021 -129.757721 74.910233
v -532.579468 -127.274078 73.592636
v -524.969055 -132.127258 76.707169
v -525.000122 -128.767120 73.497101
v -532.809082 -123.810089 70.386017
v -529.082520 -126.098633 71.468399
v -529.502319 -122.864380 67.751022
v -525.629761 -124.835175 69.247543
v -535.898071 -124.964607 72.355141
v -522.030273 -123.861450 66.805756
v -525.786987 -121.621964 65.856277
v -521.697876 -127.048370 70.799469
v -521.228271 -130.693939 75.222366
v -521.292419 -134.245682 77.513504
v -517.404175 -132.516144 76.170227
v -517.320190 -128.832825 73.403397
v -525.023926 -135.210617 78.939682
v -518.117737 -126.328835 68.328598
v -513.689453 -130.902924 73.490189
v -529.563904 -119.436676 64.588364
v -533.134644 -120.363052 67.193512
v -521.454041 -137.856537 79.635376
v -536.582275 -121.425110 69.479599
v -540.414429 -123.804260 71.338165
v -522.114258 -120.906586 63.565521
v -525.903320 -118.733093 62.235603
v -518.350098 -122.960556 64.548050
v -529.659424 -116.638168 61.101845
v -573.894043 -128.556427 66.828712
v -577.961731 -131.515350 67.090820
v -555.188599 -107.029968 38.248199
v -559.979065 -109.288834 42.663696
v -564.075562 -109.411011 37.626671
v -572.027222 -112.178635 32.509815
v -522.150635 -117.418945 61.352295
v -518.907715 -119.671158 61.953102
v -546.020752 -124.688110 71.935394
v -526.507874 -115.990356 58.244141
v -564.176636 -111.359390 44.667614
v -558.030518 -131.398621 75.291641
v -562.030762 -137.904053 77.977173
v -558.001892 -138.382782 80.779785
v -537.286621 -110.431656 51.199677
v -533.182495 -109.289062 48.182739
v -533.179932 -111.671387 52.489258
v -535.556519 -107.355652 41.250435
v -532.085022 -106.273605 39.337326
v -528.554199 -107.765717 41.926147
v -529.250610 -105.165268 34.976082
v -524.082581 -105.384094 41.826172
v -521.109985 -105.645172 35.673828
v -535.997070 -104.524338 30.493444
v -509.958252 -133.847351 74.417740
v -513.703735 -134.297821 76.255295
v -510.436707 -136.292587 76.812973
v -512.996094 -137.781067 79.868164
v -517.228394 -135.655685 77.852646
v -506.219635 -137.161560 75.065430
v -560.460205 -134.180405 76.605560
v -518.645752 -115.844330 59.543213
v -514.726685 -121.244293 63.263794
v -562.328735 -118.132401 58.734291
v -513.444824 -126.217987 68.259460
v -502.924500 -135.611008 73.226967
v -502.709167 -139.957306 74.524048
v -506.292542 -133.464096 72.539474
v -506.498779 -130.621094 67.241714
v -499.535522 -135.184357 70.499023
v -500.442780 -133.301849 65.981308
v -498.940094 -133.985413 58.381714
v -493.069366 -136.956436 60.241508
v -493.753998 -139.024261 66.317139
v -506.294861 -128.454468 61.928589
v -503.161011 -133.081421 69.309753
v -506.848816 -124.011871 60.281128
v -509.985962 -124.968376 64.465012
v -490.087799 -139.521362 62.209900
v -497.169952 -135.665802 64.758743
v -490.731720 -142.929443 65.584839
v -486.955078 -142.418320 60.812267
v -484.234192 -142.610229 56.977104
v -481.550476 -143.145081 52.074608
v -484.505249 -138.777679 54.074486
v -487.363770 -138.729797 58.809212
v -483.708984 -146.087311 60.428711
v -481.255920 -146.475830 55.291504
v -478.287689 -148.753723 49.359375
v -478.434113 -143.869904 47.196716
v -478.255219 -140.088470 43.559204
v -475.016205 -144.321350 43.098305
v -471.912659 -148.282928 39.149658
v -481.645691 -139.290466 49.329338
v -484.453430 -134.972076 50.940094
v -488.246887 -134.665680 55.265427
v -482.046448 -135.619995 45.411407
v -486.975769 -131.483536 52.218948
v -486.011047 -130.990463 47.035141
v -490.791199 -128.068512 50.529663
v -486.878082 -129.002914 41.017284
v -491.251038 -126.294815 44.717049
v -480.084045 -136.040436 38.379295
v -478.568054 -135.791046 33.302567
v -481.710999 -132.679718 33.734619
v -475.214111 -139.884354 31.739166
v -478.412567 -134.822632 27.880859
v -475.201294 -140.231537 18.489990
v -470.768921 -147.407166 24.683716
v -471.683472 -147.480988 14.749146
v -483.171448 -132.591034 40.867542
v -495.398132 -121.225128 42.448486
v -499.043671 -121.176025 47.569824
v -491.342316 -124.624664 39.715942
v -471.918243 -150.953339 43.497192
v -517.079102 -104.671082 28.156738
v -510.175323 -130.466232 72.387375
v -607.095581 -134.966431 18.450684
v -601.062195 -135.931183 33.566895
v -613.082031 -149.152405 27.160034
v -595.608765 -125.056122 25.052567
v -586.262573 -121.714233 36.007935
v -585.150452 -117.395164 22.473938
v -558.864258 -104.888031 10.068115
v -677.801636 624.758728 -736.495483
v -538.175598 -99.640594 5.346436

vn -0.138743 0.874878 0.459995
vn -0.224988 0.868998 0.436102
vn -0.122126 0.872087 0.471055
vn -0.194447 0.850853 0.473326
vn -0.141965 0.825108 0.542729
vn -0.130459 0.864401 0.479666
vn -0.131055 0.723107 0.669028
vn -0.212615 0.756767 0.614945
vn -0.213353 0.691893 0.686560
vn -0.143860 0.678310 0.718551
vn -0.092059 0.764732 0.631086
vn -0.079006 0.712403 0.695354
vn -0.310831 0.701261 0.638839
vn -0.345884 0.733864 0.578854
vn -0.308851 0.696066 0.646203
vn -0.293714 0.731310 0.614237
vn -0.245188 0.638303 0.722968
vn -0.280715 0.552246 0.779007
vn -0.307838 0.653050 0.687333
vn -0.299599 0.628802 0.714506
vn -0.317462 0.775208 0.526031
vn -0.293779 0.809965 0.498522
vn -0.263496 0.768304 0.581047
vn -0.185620 0.625437 0.754477
vn -0.103504 0.682530 0.719607
vn -0.357024 0.753330 0.528127
vn -0.371954 0.826709 0.406982
vn -0.505977 0.736989 0.433553
vn -0.528364 0.676331 0.512313
vn -0.543955 0.785214 0.280475
vn -0.576656 0.721791 0.361253
vn -0.605884 0.710813 0.343758
vn -0.571547 0.670750 0.470927
vn -0.290767 0.844420 0.445438
vn -0.560876 0.699944 0.440607
vn -0.637494 0.673869 0.346259
vn -0.640704 0.661336 0.362379
vn -0.543346 0.721362 0.428883
vn -0.677939 0.679858 0.260535
vn -0.532628 0.707670 0.460657
vn -0.496906 0.731539 0.458611
vn -0.480474 0.705863 0.515917
vn -0.385810 0.714465 0.570625
vn -0.248832 0.848149 0.465434
vn -0.253380 0.864182 0.430537
vn -0.409765 0.855956 0.292617
vn -0.235797 0.861127 0.448817
vn -0.247320 0.863918 0.437078
vn -0.064583 0.813455 0.565101
vn -0.106390 0.878176 0.464675
vn -0.057078 0.728188 0.682689
vn -0.056750 0.763805 0.638430
vn -0.057360 0.855076 0.510398
vn -0.062441 0.869602 0.487988
vn 0.049648 0.817697 0.557730
vn 0.032055 0.868044 0.489499
vn -0.122629 0.868920 0.478067
vn -0.108970 0.869924 0.479904
vn -0.129495 0.843083 0.518084
vn -0.194847 0.860507 0.464713
vn -0.168451 0.859929 0.474723
vn -0.115995 0.862795 0.488693
vn -0.016497 0.892020 0.408659
vn 0.018301 0.974361 0.136761
vn -0.139018 0.894253 0.353857
vn -0.008070 0.895926 0.420935
vn 0.073414 0.970497 0.177768
vn 0.067602 0.933202 0.329094
vn -0.047574 0.876856 0.470481
vn -0.233139 0.875007 0.403330
vn 0.049113 0.886463 0.455752
vn 0.145891 0.820151 0.549829
vn 0.138645 0.868505 0.467256
vn -0.131157 0.649081 0.747026
vn -0.243221 0.607143 0.753971
vn -0.307012 0.565635 0.759590
vn -0.276913 0.609230 0.742247
vn -0.168742 0.556317 0.794557
vn -0.195463 0.650913 0.731157
vn -0.023782 0.596677 0.777486
vn -0.066244 0.685699 0.721329
vn -0.061797 0.669235 0.739707
vn 0.034197 0.614523 0.782284
vn -0.028070 0.667349 0.743724
vn 0.074531 0.489025 0.864326
vn 0.000708 0.501295 0.856522
vn -0.037653 0.627724 0.773361
vn 0.010221 0.541349 0.817261
vn 0.040206 0.368779 0.925888
vn 0.167311 0.496996 0.827118
vn 0.041961 0.688913 0.718009
vn 0.208281 0.670304 0.700104
vn 0.183982 0.526161 0.811740
vn 0.217840 0.623074 0.742703
vn 0.177050 0.683447 0.699332
vn 0.195972 0.694725 0.688838
vn 0.098083 0.624996 0.769383
vn 0.102787 0.718460 0.684584
vn 0.252873 0.674863 0.689647
vn 0.177244 0.711380 0.675463
vn 0.224588 0.698049 0.670319
vn 0.167368 0.739011 0.649984
vn 0.124505 0.658518 0.734388
vn 0.234801 0.737183 0.632088
vn 0.206046 0.724659 0.652656
vn 0.126774 0.785650 0.589939
vn 0.054262 0.650632 0.743145
vn 0.120594 0.519878 0.843309
vn 0.169188 0.542870 0.813495
vn 0.132795 0.734456 0.616510
vn 0.174591 0.562014 0.805571
vn 0.111594 0.808448 0.553581
vn 0.260164 0.618396 0.730288
vn 0.215332 0.736404 0.632400
vn 0.248428 0.727278 0.628738
vn 0.126478 0.544708 0.819034
vn 0.076537 0.701867 0.688415
vn -0.034598 0.693094 0.717535
vn 0.180100 0.648808 0.722701
vn 0.144909 0.739259 0.622749
vn 0.080303 0.691246 0.704348
vn 0.201855 0.808528 0.543399
vn -0.387717 0.677428 0.615836
vn -0.421310 0.663675 0.610015
vn -0.222809 0.953496 0.175693
vn -0.262686 0.908961 0.306249
vn -0.340706 0.918683 0.177645
vn -0.445340 0.877381 0.151425
vn 0.069412 0.594496 0.769659
vn 0.095803 0.563575 0.810620
vn -0.055697 0.701942 0.708210
vn 0.151371 0.841798 0.481994
vn -0.300826 0.883617 0.344341
vn -0.230097 0.569783 0.788158
vn -0.378849 0.498684 0.772656
vn -0.331343 0.596580 0.727902
vn 0.083056 0.883575 0.459507
vn 0.092344 0.921169 0.355132
vn 0.142813 0.887718 0.433226
vn -0.020543 0.951739 0.251566
vn -0.013456 0.932018 0.325574
vn -0.062512 0.898358 0.360444
vn -0.044483 0.949678 0.208786
vn -0.186784 0.913487 0.170101
vn 0.051704 0.991258 0.078549
vn -0.136342 0.960798 0.225108
vn 0.310836 0.565400 0.757668
vn 0.234748 0.626775 0.728486
vn 0.353012 0.649308 0.669088
vn 0.184584 0.684391 0.678422
vn 0.081660 0.565669 0.806814
vn 0.340719 0.522942 0.762344
vn -0.288413 0.507990 0.804861
vn 0.069040 0.523509 0.838824
vn 0.138949 0.656871 0.688286
vn -0.286306 0.855292 0.429157
vn 0.225558 0.728343 0.588304
vn 0.368238 0.537426 0.689837
vn 0.474075 0.270627 0.828118
vn 0.364238 0.657247 0.610533
vn 0.521694 0.748520 0.335187
vn 0.512158 0.687479 0.388760
vn 0.494142 0.838200 0.163141
vn 0.450866 0.722847 0.357110
vn 0.406451 0.783006 0.414188
vn 0.600811 0.683170 0.355358
vn 0.685393 0.485881 0.477866
vn 0.379630 0.827335 0.399491
vn 0.592211 0.465345 0.613160
vn 0.560354 0.591664 0.524384
vn 0.576804 0.580946 0.518103
vn 0.571809 0.789927 0.175932
vn 0.673340 0.465089 0.573268
vn 0.687626 0.461258 0.552132
vn 0.780158 0.438774 0.434954
vn 0.829898 0.355072 0.420579
vn 0.776358 0.413739 0.465273
vn 0.612183 0.529947 0.531928
vn 0.714560 0.514588 0.459056
vn 0.831237 0.428855 0.347172
vn 0.790191 0.315035 0.502644
vn 0.783346 0.347121 0.503719
vn 0.772347 0.521829 0.325386
vn 0.775899 0.436347 0.399280
vn 0.871857 0.450043 0.178091
vn 0.814742 0.393850 0.418341
vn 0.779202 0.440561 0.404815
vn 0.458071 0.569788 0.619178
vn 0.792609 0.543323 0.258455
vn 0.597742 0.554843 0.438607
vn 0.700873 0.672777 0.193195
vn 0.457197 0.716013 0.410168
vn 0.665016 0.728321 0.155760
vn 0.627747 0.734678 0.235052
vn 0.771110 0.599042 0.206404
vn 0.747269 0.628366 0.194821
vn 0.712929 0.679227 0.157557
vn 0.823417 0.538785 0.132702
vn 0.782176 0.606233 0.086884
vn 0.852663 0.522273 -0.012861
vn 0.874844 0.477350 0.042212
vn 0.000000 0.000000 0.000000
vn 0.749207 0.636951 0.162559
vn 0.654179 0.676789 0.316573
vn 0.593876 0.732876 0.307215
vn 0.677368 0.709024 0.186037
vn 0.782308 0.391901 0.440045
vn 0.000000 0.000000 0.000000
vn 0.352511 0.650549 0.605624
vn -0.620238 0.718891 -0.057858
vn -0.704858 0.639315 0.298234
vn 0.000000 0.000000 0.000000
vn -0.634715 0.711988 0.199023
vn -0.578851 0.768789 0.242999
vn -0.519007 0.819985 -0.000424
vn -0.212980 0.933733 0.049779
vn 0.000000 0.000000 0.000000
vn -0.062951 0.974662 0.189092


g Scans/FullVolium/meshes/FullVolium.000177
usemtl Scans/FullVolium/meshes/FullVolium.000177
s

f 99//99 115//115 117//117
f 87//87 84//84 83//83
f 148//148 109//109 151//151
f 83//83 86//86 87//87
f 119//119 121//121 130//130
f 107//107 97//97 108//108
f 107//107 98//98 97//97
f 99//99 117//117 103//103
f 154//154 129//129 130//130
f 111//111 116//116 108//108
f 111//111 108//108 97//97
f 129//129 119//119 130//130
f 89//89 90//90 88//88
f 88//88 86//86 89//89
f 105//105 102//102 104//104
f 109//109 107//107 108//108
f 99//99 103//103 96//96
f 99//99 96//96 100//100
f 117//117 118//118 103//103
f 105//105 114//114 101//101
f 88//88 90//90 92//92
f 155//155 130//130 121//121
f 81//81 82//82 74//74
f 99//99 101//101 115//115
f 12//12 25//25 131//131
f 158//158 160//160 152//152
f 159//159 158//158 152//152
f 76//76 75//75 134//134
f 105//105 104//104 119//119
f 121//121 119//119 104//104
f 106//106 104//104 102//102
f 183//183 182//182 184//184
f 94//94 92//92 90//90
f 85//85 86//86 83//83
f 81//81 83//83 84//84
f 4//4 8//8 5//5
f 110//110 107//107 109//109
f 79//79 77//77 78//78
f 24//24 134//134 75//75
f 132//132 122//122 120//120
f 50//50 54//54 57//57
f 77//77 76//76 136//136
f 80//80 85//85 83//83
f 84//84 82//82 81//81
f 101//101 102//102 105//105
f 151//151 109//109 108//108
f 80//80 79//79 78//78
f 25//25 74//74 82//82
f 3//3 50//50 57//57
f 52//52 49//49 51//51
f 120//120 119//119 129//129
f 114//114 115//115 101//101
f 124//124 123//123 42//42
f 11//11 49//49 6//6
f 11//11 51//51 49//49
f 120//120 122//122 114//114
f 10//10 12//12 7//7
f 10//10 25//25 12//12
f 16//16 43//43 123//123
f 16//16 123//123 19//19
f 12//12 131//131 51//51
f 12//12 51//51 11//11
f 140//140 68//68 138//138
f 94//94 90//90 93//93
f 87//87 86//86 88//88
f 54//54 71//71 69//69
f 9//9 10//10 7//7
f 147//147 152//152 160//160
f 147//147 149//149 152//152
f 95//95 92//92 94//94
f 7//7 12//12 11//11
f 56//56 71//71 54//54
f 54//54 50//50 53//53
f 54//54 53//53 56//56
f 113//113 147//147 209//209
f 113//113 148//148 147//147
f 179//179 175//175 174//174
f 81//81 79//79 80//80
f 81//81 80//80 83//83
f 148//148 149//149 147//147
f 7//7 11//11 5//5
f 120//120 105//105 119//119
f 120//120 114//114 105//105
f 95//95 100//100 96//96
f 53//53 49//49 52//52
f 75//75 74//74 24//24
f 134//134 18//18 153//153
f 134//134 153//153 76//76
f 7//7 8//8 9//9
f 7//7 5//5 8//8
f 69//69 57//57 54//54
f 5//5 11//11 6//6
f 63//63 59//59 62//62
f 77//77 79//79 75//75
f 77//77 75//75 76//76
f 13//13 9//9 8//8
f 66//66 137//137 68//68
f 66//66 68//68 67//67
f 138//138 68//68 137//137
f 138//138 137//137 139//139
f 76//76 153//153 135//135
f 76//76 135//135 136//136
f 91//91 88//88 92//92
f 91//91 87//87 88//88
f 53//53 52//52 55//55
f 151//151 108//108 116//116
f 177//177 186//186 187//187
f 41//41 124//124 42//42
f 56//56 53//53 55//55
f 188//188 177//177 187//187
f 168//168 162//162 163//163
f 95//95 94//94 97//97
f 95//95 97//97 98//98
f 101//101 99//99 100//100
f 101//101 100//100 102//102
f 63//63 64//64 65//65
f 171//171 174//174 178//178
f 113//113 109//109 148//148
f 113//113 110//110 109//109
f 58//58 62//62 59//59
f 94//94 111//111 97//97
f 94//94 93//93 111//111
f 58//58 60//60 61//61
f 1//1 4//4 5//5
f 69//69 137//137 66//66
f 59//59 60//60 58//58
f 56//56 73//73 71//71
f 56//56 72//72 73//73
f 15//15 19//19 20//20
f 15//15 16//16 19//19
f 177//177 176//176 186//186
f 46//46 34//34 45//45
f 65//65 70//70 59//59
f 65//65 59//59 63//63
f 175//175 176//176 177//177
f 175//175 180//180 176//176
f 73//73 72//72 122//122
f 21//21 8//8 4//4
f 24//24 74//74 25//25
f 24//24 25//25 10//10
f 1//1 61//61 2//2
f 79//79 74//74 75//75
f 79//79 81//81 74//74
f 22//22 156//156 44//44
f 142//142 141//141 140//140
f 142//142 143//143 141//141
f 48//48 45//45 47//47
f 67//67 64//64 63//63
f 43//43 42//42 123//123
f 69//69 66//66 62//62
f 132//132 120//120 129//129
f 148//148 151//151 150//150
f 148//148 150//150 149//149
f 70//70 60//60 59//59
f 190//190 188//188 187//187
f 1//1 5//5 6//6
f 172//172 163//163 162//162
f 161//161 160//160 168//168
f 3//3 61//61 1//1
f 3//3 57//57 58//58
f 3//3 58//58 61//61
f 137//137 69//69 71//71
f 13//13 17//17 9//9
f 13//13 15//15 17//17
f 33//33 40//40 29//29
f 33//33 29//29 28//28
f 13//13 21//21 14//14
f 13//13 8//8 21//21
f 66//66 67//67 63//63
f 66//66 63//63 62//62
f 179//179 180//180 175//175
f 160//160 209//209 147//147
f 126//126 133//133 48//48
f 14//14 15//15 13//13
f 14//14 16//16 15//15
f 17//17 20//20 18//18
f 17//17 15//15 20//20
f 206//206 194//194 193//193
f 112//112 104//104 106//106
f 2//2 4//4 1//1
f 55//55 72//72 56//56
f 71//71 139//139 137//137
f 131//131 25//25 82//82
f 166//166 173//173 171//171
f 178//178 174//174 175//175
f 3//3 6//6 50//50
f 3//3 1//1 6//6
f 44//44 45//45 34//34
f 91//91 96//96 103//103
f 44//44 47//47 45//45
f 26//26 43//43 23//23
f 121//121 104//104 112//112
f 73//73 139//139 71//71
f 57//57 69//69 62//62
f 57//57 62//62 58//58
f 127//127 133//133 126//126
f 146//146 141//141 143//143
f 98//98 100//100 95//95
f 178//178 177//177 188//188
f 178//178 175//175 177//177
f 35//35 40//40 33//33
f 189//189 187//187 186//186
f 92//92 96//96 91//91
f 92//92 95//95 96//96
f 50//50 49//49 53//53
f 50//50 6//6 49//49
f 190//190 187//187 191//191
f 197//197 195//195 196//196
f 35//35 32//32 36//36
f 35//35 38//38 40//40
f 22//22 21//21 156//156
f 43//43 29//29 42//42
f 23//23 16//16 14//14
f 23//23 43//43 16//16
f 189//189 191//191 187//187
f 133//133 45//45 48//48
f 133//133 46//46 45//45
f 174//174 171//171 173//173
f 114//114 122//122 72//72
f 157//157 170//170 155//155
f 35//35 36//36 37//37
f 35//35 37//37 38//38
f 44//44 156//156 2//2
f 44//44 2//2 47//47
f 17//17 18//18 134//134
f 61//61 47//47 2//2
f 61//61 60//60 47//47
f 183//183 189//189 186//186
f 22//22 23//23 14//14
f 22//22 14//14 21//21
f 33//33 32//32 35//35
f 31//31 32//32 33//33
f 106//106 98//98 107//107
f 26//26 29//29 43//43
f 26//26 28//28 29//29
f 98//98 106//106 102//102
f 98//98 102//102 100//100
f 168//168 158//158 162//162
f 168//168 160//160 158//158
f 192//192 190//190 191//191
f 143//143 142//142 144//144
f 26//26 23//23 22//22
f 198//198 199//199 196//196
f 31//31 33//33 28//28
f 41//41 40//40 38//38
f 161//161 209//209 160//160
f 132//132 73//73 122//122
f 189//189 195//195 203//203
f 197//197 203//203 195//195
f 51//51 131//131 118//118
f 51//51 118//118 52//52
f 156//156 4//4 2//2
f 156//156 21//21 4//4
f 178//178 165//165 171//171
f 159//159 162//162 158//158
f 93//93 90//90 89//89
f 197//197 196//196 199//199
f 170//170 167//167 169//169
f 55//55 117//117 115//115
f 110//110 106//106 107//107
f 40//40 42//42 29//29
f 40//40 41//41 42//42
f 157//157 121//121 112//112
f 157//157 155//155 121//121
f 39//39 36//36 32//32
f 26//26 27//27 28//28
f 110//110 112//112 106//106
f 48//48 47//47 60//60
f 48//48 60//60 70//70
f 85//85 80//80 78//78
f 126//126 48//48 70//70
f 166//166 165//165 172//172
f 166//166 171//171 165//165
f 10//10 9//9 17//17
f 194//194 191//191 193//193
f 194//194 192//192 191//191
f 84//84 87//87 91//91
f 93//93 116//116 111//111
f 181//181 182//182 176//176
f 181//181 176//176 180//180
f 52//52 117//117 55//55
f 52//52 118//118 117//117
f 30//30 31//31 28//28
f 30//30 28//28 27//27
f 164//164 172//172 165//165
f 194//194 206//206 204//204
f 163//163 172//172 164//164
f 203//203 193//193 191//191
f 203//203 191//191 189//189
f 17//17 134//134 24//24
f 17//17 24//24 10//10
f 154//154 130//130 155//155
f 136//136 78//78 77//77
f 125//125 126//126 70//70
f 125//125 70//70 65//65
f 163//163 161//161 168//168
f 145//145 143//143 144//144
f 135//135 153//153 18//18
f 182//182 183//183 186//186
f 182//182 186//186 176//176
f 157//157 113//113 209//209
f 85//85 89//89 86//86
f 138//138 142//142 140//140
f 195//195 189//189 183//183
f 140//140 67//67 68//68
f 166//166 172//172 162//162
f 72//72 55//55 115//115
f 72//72 115//115 114//114
f 207//207 185//185 184//184
f 188//188 165//165 178//178
f 150//150 152//152 149//149
f 19//19 123//123 124//124
f 22//22 44//44 34//34
f 181//181 184//184 182//182
f 150//150 151//151 116//116
f 157//157 209//209 161//161
f 170//170 157//157 161//161
f 170//170 161//161 167//167
f 84//84 131//131 82//82
f 22//22 27//27 26//26
f 22//22 34//34 27//27
f 157//157 112//112 110//110
f 157//157 110//110 113//113
f 169//169 155//155 170//170
f 207//207 184//184 181//181
f 192//192 188//188 190//190
f 179//179 174//174 173//173
f 27//27 34//34 46//46
f 127//127 46//46 133//133
f 132//132 139//139 73//73
f 193//193 203//203 197//197
f 125//125 65//65 64//64
f 19//19 18//18 20//20
f 194//194 204//204 205//205
f 127//127 126//126 125//125
f 200//200 198//198 201//201
f 205//205 192//192 194//194
f 30//30 32//32 31//31
f 146//146 140//140 141//141
f 200//200 199//199 198//198
f 30//30 27//27 46//46
f 198//198 196//196 195//195
f 37//37 41//41 38//38
f 39//39 37//37 36//36
f 164//164 165//165 188//188
f 164//164 161//161 163//163
f 164//164 167//167 161//161
f 164//164 188//188 192//192
f 164//164 169//169 167//167
f 128//128 46//46 127//127
f 206//206 193//193 197//197
f 201//201 198//198 185//185
f 198//198 184//184 185//185
f 198//198 195//195 183//183
f 198//198 183//183 184//184
f 39//39 32//32 30//30
f 214//214 215//215 213//213
f 214//214 39//39 30//30
f 211//211 213//213 210//210
f 211//211 214//214 213//213
f 211//211 39//39 214//214
f 215//215 214//214 128//128
f 214//214 30//30 46//46
f 214//214 46//46 128//128
f 211//211 37//37 39//39
f 210//210 213//213 215//215
f 216//216 128//128 127//127
f 216//216 127//127 125//125
f 216//216 215//215 128//128
f 218//218 146//146 143//143
f 216//216 146//146 218//218
f 218//218 143//143 145//145
f 216//216 125//125 64//64
f 216//216 64//64 67//67
f 216//216 140//140 146//146
f 216//216 67//67 140//140
f 216//216 210//210 215//215
f 118//118 91//91 103//103
f 84//84 118//118 131//131
f 118//118 84//84 91//91
