# 3Q Technologies Ltd.
# 3D Surface file output
# File type: ASCII OBJ
# All enquiries to : support@3q.com
# COPYRIGHT: (c) 1998-2002 3Q Technologies Ltd.
# COMMERCIAL IN CONFIDENCE.

mtllib Scans/FullVolium/meshes/FullVolium.000151.mtl

v -655.715942 -202.385376 -464.244019
v -682.352051 -176.090454 -388.870117
v -669.516479 -173.163223 -410.250793
v -672.617554 -167.392441 -407.448975
v -673.072754 -172.115875 -404.956482
v -676.313660 -173.452576 -400.822754
v -676.608887 -167.787872 -402.579834
v -676.900391 -163.742310 -406.470703
v -672.759155 -162.606293 -410.631409
v -672.612366 -158.658630 -414.827515
v -669.898560 -158.699310 -420.235046
v -666.963135 -158.958008 -426.403809
v -673.174011 -154.203217 -420.082520
v -669.736694 -162.871292 -415.373230
v -666.771118 -163.203888 -421.181580
v -670.023315 -154.321243 -425.658264
v -664.450012 -159.236221 -433.320618
v -663.267578 -164.347992 -428.857025
v -673.569092 -149.586029 -425.625061
v -670.463135 -149.952667 -432.230408
v -674.532288 -145.573547 -429.873413
v -677.567871 -144.756866 -424.308777
v -667.487427 -154.655197 -430.812927
v -661.696838 -170.054092 -426.973389
v -660.056396 -169.794418 -433.040588
v -661.370544 -164.400497 -436.180206
v -669.186035 -167.828125 -412.702698
v -666.556763 -167.340668 -417.396545
v -673.728271 -144.269409 -436.162964
v -669.388123 -149.171326 -439.378601
v -659.345215 -175.498322 -429.664917
v -661.647339 -174.670929 -423.261292
v -681.192139 -142.090027 -417.184448
v -677.263184 -148.447113 -418.745911
v -681.261597 -140.372192 -425.130981
v -681.561157 -137.191742 -429.454590
v -685.690735 -135.481598 -422.234985
v -677.617065 -141.688904 -430.866516
v -664.017456 -168.386826 -422.156433
v -677.719238 -139.274689 -438.081909
v -676.093628 -153.954391 -413.977234
v -679.796631 -148.512665 -411.811096
v -684.146362 -144.657349 -410.568115
v -688.018677 -146.278046 -406.490967
v -683.421021 -149.093628 -407.438110
v -678.921875 -153.353088 -408.645996
v -678.949280 -157.069641 -405.422394
v -675.179199 -157.895477 -409.795959
v -683.172485 -153.348572 -404.310852
v -682.682373 -158.794342 -402.170776
v -686.935364 -156.103149 -402.130005
v -687.239136 -151.141510 -404.699036
v -691.056274 -149.606339 -405.099091
v -690.882568 -152.350281 -403.198486
v -665.999390 -154.326965 -437.583069
v -659.693115 -169.957886 -444.131775
v -663.352295 -159.503845 -442.556763
v -666.846558 -152.781158 -446.156433
v -658.478149 -175.280762 -434.848694
v -665.515869 -173.111237 -416.169006
v -672.906616 -143.710510 -444.141724
v -657.841309 -182.458466 -435.841095
v -667.047913 -153.930359 -459.705322
v -659.419434 -182.073608 -425.330688
v -662.154236 -179.587341 -419.847961
v -665.389282 -180.151093 -414.032104
v -662.817810 -185.589355 -417.899414
v -665.729004 -185.954285 -411.002991
v -660.680664 -191.277985 -420.946045
v -663.556946 -191.720917 -414.703430
v -666.506470 -191.835114 -409.406982
v -668.432678 -187.283386 -406.718750
v -670.152588 -192.125580 -404.718323
v -670.891052 -180.563293 -403.617004
v -672.192871 -186.794983 -401.847626
v -674.091309 -192.684769 -399.346924
v -673.614136 -183.530029 -402.655762
v -675.234619 -188.155731 -397.304993
v -664.413696 -196.479141 -412.017242
v -668.178101 -197.789795 -407.856445
v -672.294922 -198.173935 -401.942749
v -678.035645 -190.993744 -394.243713
v -677.133423 -198.612518 -395.520264
v -661.496704 -197.163788 -417.440918
v -663.901489 -203.310913 -414.542175
v -660.470093 -202.881821 -421.527466
v -662.446167 -208.212952 -419.640137
v -661.783875 -211.991913 -428.162903
v -666.551392 -214.568695 -416.104675
v -657.817017 -197.717285 -437.451782
v -657.750854 -191.388702 -428.790771
v -658.366821 -209.599243 -440.100464
v -659.191223 -198.190887 -424.511475
v -670.456543 -214.906525 -406.163208
v -670.465332 -208.310150 -405.017273
v -667.156799 -221.456467 -422.903137
v -668.406799 -227.426147 -428.206116
v -672.427490 -241.344788 -440.171997
v -670.940002 -221.445007 -411.213013
v -674.837830 -206.866806 -399.197754
v -674.787415 -213.570984 -400.552856
v -679.129272 -211.048981 -394.487183
v -685.924927 -209.776215 -390.127930
v -682.088257 -193.767548 -390.330322
v -687.391724 -194.910980 -388.396118
v -695.865845 -150.466156 -402.879272
v -676.395386 -184.059875 -397.716736
v -22.468292 -190.627441 -669.229370
v -25.405396 -174.350403 -660.908569
v 1.771721 641.221130 510.386841
v -659.461731 -177.794006 -480.436890
v -462.508545 484.655579 422.545959

vn 0.000000 0.000000 0.000000
vn 0.792183 0.095035 0.562686
vn 0.826024 0.218852 0.516735
vn 0.727291 0.339285 0.565615
vn 0.764213 0.253290 0.586204
vn 0.767152 0.279843 0.562626
vn 0.732972 0.315019 0.573582
vn 0.646036 0.292857 0.670015
vn 0.737528 0.369289 0.536371
vn 0.786281 0.481692 0.379297
vn 0.780296 0.495719 0.379334
vn 0.826339 0.452149 0.332382
vn 0.768776 0.516181 0.375157
vn 0.793609 0.420831 0.433130
vn 0.827796 0.427403 0.359728
vn 0.765267 0.526246 0.365978
vn 0.876143 0.427749 0.202358
vn 0.875785 0.387503 0.281133
vn 0.767319 0.538660 0.345464
vn 0.776248 0.572426 0.254425
vn 0.751309 0.591823 0.283119
vn 0.757462 0.582300 0.274494
vn 0.815458 0.495587 0.281568
vn 0.907788 0.296241 0.292770
vn 0.938081 0.283560 0.163128
vn 0.915503 0.363644 0.108357
vn 0.811346 0.283423 0.505627
vn 0.836178 0.327687 0.431375
vn 0.758940 0.622763 0.181308
vn 0.806274 0.576563 0.104897
vn 0.951403 0.180530 0.225428
vn 0.901653 0.226125 0.362324
vn 0.770818 0.549365 0.268459
vn 0.816087 0.478533 0.319110
vn 0.752601 0.598987 0.248290
vn 0.770369 0.561151 0.291727
vn 0.780152 0.571566 0.227935
vn 0.731923 0.624787 0.262529
vn 0.873143 0.316772 0.362975
vn 0.747194 0.639310 0.175551
vn 0.799466 0.486360 0.347416
vn 0.735028 0.479847 0.450073
vn 0.584329 0.546392 0.591023
vn 0.336010 0.319382 0.839402
vn 0.500928 0.502570 0.679714
vn 0.695868 0.484372 0.511611
vn 0.648383 0.306565 0.662259
vn 0.757242 0.373433 0.487496
vn 0.401307 0.462215 0.755362
vn 0.465560 0.266994 0.814506
vn 0.213641 0.446251 0.867145
vn 0.200278 0.466462 0.848642
vn 0.217365 0.369615 0.859374
vn 0.212224 0.520059 0.824307
vn 0.849342 0.499304 0.118148
vn 0.960289 0.254888 -0.033959
vn 0.910067 0.403875 0.001216
vn 0.855019 0.513601 -0.016009
vn 0.974955 0.162662 0.072797
vn 0.848081 0.216389 0.478666
vn 0.797635 0.593877 0.051043
vn 0.990638 0.072808 0.044870
vn 0.896853 0.425487 -0.068177
vn 0.933587 0.105756 0.315108
vn 0.882697 0.129186 0.444544
vn 0.860344 0.167723 0.474724
vn 0.896976 0.092057 0.429346
vn 0.873013 0.090581 0.469984
vn 0.918291 0.073299 0.382802
vn 0.888945 0.094782 0.444886
vn 0.817733 0.007211 0.566662
vn 0.809722 0.008653 0.584377
vn 0.800800 -0.028586 0.597683
vn 0.720936 0.105074 0.565567
vn 0.685068 0.131255 0.627274
vn 0.802035 -0.029965 0.595099
vn 0.518396 0.047887 0.598614
vn 0.739960 0.098884 0.633573
vn 0.824138 -0.021191 0.544285
vn 0.794385 -0.059983 0.599981
vn 0.807019 -0.029481 0.589420
vn 0.737326 0.020857 0.656374
vn 0.772486 -0.036286 0.631416
vn 0.906290 -0.006391 0.402405
vn 0.845601 -0.167288 0.494524
vn 0.927918 -0.173501 0.291820
vn 0.882180 -0.285457 0.341628
vn 0.924135 -0.304829 0.191080
vn 0.878391 -0.292729 0.351327
vn 0.986095 -0.080288 0.058430
vn 0.967861 0.007791 0.186254
vn 0.953079 -0.178113 0.126171
vn 0.961132 -0.091295 0.209378
vn 0.862716 -0.164702 0.440894
vn 0.826099 -0.092383 0.540639
vn 0.884021 -0.381763 0.266554
vn 0.871093 -0.423334 0.236129
vn 0.876117 -0.426524 0.207042
vn 0.862722 -0.401163 0.299283
vn 0.784861 -0.078290 0.613535
vn 0.779270 -0.114368 0.616107
vn 0.775732 -0.093830 0.623404
vn 0.000000 0.000000 0.000000
vn 0.708448 -0.041092 0.704531
vn 0.000000 0.000000 0.000000
vn 0.306931 0.349120 0.843825
vn 0.744309 0.054554 0.557393
vn 0.000000 0.000000 0.000000
vn 0.000000 0.000000 0.000000
vn 0.000000 0.000000 0.000000
vn 0.979828 0.115310 -0.045820
vn 0.000000 0.000000 0.000000


g Scans/FullVolium/meshes/FullVolium.000151
usemtl Scans/FullVolium/meshes/FullVolium.000151
s

f 45//45 52//52 49//49
f 51//51 49//49 52//52
f 53//53 54//54 52//52
f 9//9 14//14 10//10
f 51//51 52//52 54//54
f 44//44 53//53 52//52
f 44//44 52//52 45//45
f 106//106 54//54 53//53
f 48//48 9//9 10//10
f 48//48 41//41 46//46
f 43//43 44//44 45//45
f 5//5 7//7 6//6
f 41//41 48//48 10//10
f 9//9 8//8 4//4
f 71//71 80//80 79//79
f 15//15 28//28 39//39
f 42//42 43//43 45//45
f 101//101 95//95 100//100
f 73//73 71//71 72//72
f 27//27 3//3 60//60
f 27//27 60//60 28//28
f 4//4 7//7 5//5
f 4//4 8//8 7//7
f 74//74 77//77 75//75
f 70//70 71//71 79//79
f 73//73 80//80 71//71
f 84//84 69//69 70//70
f 76//76 81//81 73//73
f 67//67 70//70 69//69
f 49//49 51//51 50//50
f 84//84 70//70 79//79
f 68//68 72//72 71//71
f 47//47 49//49 50//50
f 65//65 66//66 67//67
f 48//48 46//46 47//47
f 75//75 73//73 72//72
f 16//16 13//13 11//11
f 20//20 21//21 19//19
f 22//22 19//19 21//21
f 14//14 11//11 10//10
f 14//14 15//15 11//11
f 93//93 69//69 84//84
f 12//12 23//23 16//16
f 12//12 16//16 11//11
f 81//81 80//80 73//73
f 76//76 73//73 75//75
f 76//76 75//75 78//78
f 12//12 11//11 15//15
f 59//59 25//25 31//31
f 12//12 17//17 23//23
f 29//29 38//38 21//21
f 46//46 42//42 45//45
f 64//64 32//32 65//65
f 14//14 27//27 28//28
f 14//14 28//28 15//15
f 18//18 26//26 17//17
f 18//18 17//17 12//12
f 85//85 84//84 79//79
f 25//25 18//18 24//24
f 25//25 26//26 18//18
f 94//94 95//95 101//101
f 10//10 11//11 13//13
f 10//10 13//13 41//41
f 39//39 32//32 24//24
f 40//40 38//38 29//29
f 3//3 27//27 4//4
f 3//3 4//4 5//5
f 46//46 49//49 47//47
f 46//46 45//45 49//49
f 82//82 76//76 78//78
f 31//31 25//25 24//24
f 35//35 38//38 36//36
f 31//31 32//32 64//64
f 31//31 24//24 32//32
f 55//55 23//23 17//17
f 41//41 42//42 46//46
f 48//48 8//8 9//9
f 48//48 47//47 8//8
f 19//19 13//13 16//16
f 76//76 82//82 83//83
f 68//68 67//67 66//66
f 9//9 27//27 14//14
f 9//9 4//4 27//27
f 74//74 75//75 72//72
f 102//102 101//101 100//100
f 62//62 31//31 64//64
f 68//68 71//71 70//70
f 68//68 70//70 67//67
f 86//86 93//93 84//84
f 86//86 85//85 87//87
f 86//86 84//84 85//85
f 22//22 21//21 38//38
f 22//22 38//38 35//35
f 20//20 29//29 21//21
f 20//20 30//30 29//29
f 59//59 31//31 62//62
f 75//75 77//77 107//107
f 75//75 107//107 78//78
f 22//22 33//33 34//34
f 41//41 13//13 34//34
f 41//41 34//34 42//42
f 20//20 16//16 23//23
f 20//20 19//19 16//16
f 18//18 39//39 24//24
f 33//33 22//22 35//35
f 36//36 37//37 35//35
f 61//61 29//29 30//30
f 104//104 83//83 82//82
f 81//81 76//76 83//83
f 50//50 8//8 47//47
f 20//20 23//23 55//55
f 20//20 55//55 30//30
f 19//19 22//22 34//34
f 19//19 34//34 13//13
f 61//61 40//40 29//29
f 39//39 28//28 60//60
f 42//42 33//33 43//43
f 42//42 34//34 33//33
f 37//37 33//33 35//35
f 57//57 55//55 17//17
f 57//57 17//17 26//26
f 32//32 39//39 60//60
f 106//106 53//53 44//44
f 40//40 36//36 38//38
f 74//74 72//72 68//68
f 18//18 12//12 15//15
f 18//18 15//15 39//39
f 65//65 32//32 60//60
f 65//65 60//60 66//66
f 58//58 55//55 57//57
f 58//58 30//30 55//55
f 88//88 86//86 87//87
f 56//56 25//25 59//59
f 56//56 26//26 25//25
f 66//66 60//60 3//3
f 85//85 79//79 80//80
f 64//64 65//65 67//67
f 82//82 78//78 107//107
f 106//106 51//51 54//54
f 91//91 69//69 93//93
f 89//89 94//94 99//99
f 74//74 3//3 5//5
f 74//74 5//5 6//6
f 56//56 57//57 26//26
f 100//100 81//81 83//83
f 88//88 92//92 90//90
f 91//91 62//62 64//64
f 58//58 61//61 30//30
f 64//64 67//67 69//69
f 64//64 69//69 91//91
f 102//102 100//100 83//83
f 88//88 93//93 86//86
f 74//74 68//68 66//66
f 74//74 66//66 3//3
f 90//90 91//91 93//93
f 90//90 93//93 88//88
f 96//96 89//89 99//99
f 89//89 87//87 85//85
f 88//88 87//87 89//89
f 89//89 95//95 94//94
f 88//88 89//89 96//96
f 56//56 59//59 62//62
f 2//2 6//6 7//7
f 90//90 62//62 91//91
f 2//2 82//82 107//107
f 2//2 104//104 82//82
f 63//63 58//58 57//57
f 63//63 61//61 58//58
f 2//2 107//107 74//74
f 2//2 74//74 6//6
f 97//97 96//96 99//99
f 97//97 88//88 96//96
f 63//63 57//57 56//56
f 98//98 97//97 99//99
f 98//98 88//88 97//97
f 98//98 92//92 88//88
f 111//111 63//63 56//56
f 111//111 56//56 62//62
f 111//111 62//62 90//90
f 111//111 90//90 92//92
f 95//95 81//81 100//100
f 95//95 80//80 81//81
f 95//95 85//85 80//80
f 95//95 89//89 85//85
f 74//74 107//107 77//77
