# 3Q Technologies Ltd.
# 3D Surface file output
# File type: ASCII OBJ
# All enquiries to : support@3q.com
# COPYRIGHT: (c) 1998-2002 3Q Technologies Ltd.
# COMMERCIAL IN CONFIDENCE.

mtllib Scans/FullVolium/meshes/FullVolium.000633.mtl

v 307.196289 572.911743 592.338745
v 305.575500 611.504883 621.013916
v 306.318848 612.501953 630.964661
v 305.572601 621.302002 626.214294
v 306.341064 621.328613 635.594543
v 305.522766 632.683838 631.041992
v 305.160431 631.736938 618.973633
v 304.927063 621.309204 614.731689
v 304.770813 631.074829 607.456665
v 304.466278 621.347168 603.013184
v 305.488556 602.366089 615.820190
v 306.077057 601.736694 628.715881
v 306.050934 630.967285 643.400391
v 306.358215 635.068237 659.337036
v 307.386841 629.087158 662.929932
v 309.003906 627.261230 674.518616
v 304.389465 612.256104 597.733765
v 305.005035 611.267578 608.520569
v 304.967834 599.981506 601.381348
v 304.012024 621.323242 591.303955
v 304.478119 631.361572 596.220215
v 309.039062 562.113525 600.235107
v 306.137451 582.431335 605.028809
v 305.612061 584.883179 590.426025
v 305.187439 640.844360 611.433228
v 310.085999 610.979736 658.925049
v 308.210175 621.364746 657.576355
v 307.143127 612.117859 641.336853
v 304.404663 590.187134 620.622986
v 303.795807 611.185303 585.916931
v 303.686157 621.042419 579.105347
v 303.633789 610.968811 570.924011
v 305.056213 641.135498 600.610962
v 304.969177 641.433472 589.019409
v 305.246826 652.109802 595.986572
v 305.308105 650.852661 607.434570
v 305.244843 649.627441 620.817383
v 305.051575 663.074402 604.033264
v 305.334717 660.390991 590.833618
v 305.222534 652.086304 583.640991
v 305.185791 652.073059 571.187500
v 304.741425 641.082520 577.919922
v 305.570526 663.520264 579.109863
v 304.186035 631.170288 584.122314
v 320.238922 748.308472 722.563660
v 324.651886 755.666931 726.346985
v 328.142761 755.851379 734.825439
v 328.120789 761.548828 727.833984
v 334.786530 770.751831 729.805542
v 323.269287 750.195068 730.007690
v 323.134430 756.661255 715.915710
v 322.566650 741.190613 733.394531
v 304.827637 662.480103 630.246216
v 303.861755 631.622375 571.520569
v 304.049622 598.318848 579.427551
v 303.882538 590.047974 569.337891
v 318.406067 521.746460 625.934326
v 317.898254 530.223877 630.012451
v 319.961975 528.903076 639.555176
v 317.274048 538.980469 633.424927
v 315.942413 531.455383 619.663757
v 313.739685 537.871643 612.094849
v 314.425964 529.946167 608.169434
v 316.652771 521.148376 614.314331
v 320.313110 539.659790 651.857056
v 313.047607 529.732239 595.701477
v 311.155090 539.516418 587.598083
v 310.359253 549.720825 593.590088
v 309.404663 549.756592 580.692566
v 310.273132 539.371765 574.491699
v 307.755310 562.198853 581.277893
v 311.706909 529.864929 583.373901
v 313.786438 519.970093 591.480347
v 315.280640 521.120117 602.678223
v 312.439026 539.165222 602.398071
v 312.646484 547.625977 614.586792
v 311.062073 558.936279 618.714722
v 318.407593 514.359985 620.034729
v 320.795837 512.401428 631.583435
v 317.182129 511.943115 609.078979
v 305.934998 571.134033 569.645325
v 305.429260 580.461731 578.618896
v 306.765625 560.616943 566.555847
v 308.394318 697.839478 729.283325
v 310.685364 698.085938 737.174377
v 311.443207 704.471191 731.786499
v 314.965240 711.439575 734.909485
v 311.980377 709.533325 727.400513
v 309.429047 703.525818 726.092896
v 306.929199 699.384521 720.997437
v 307.618896 691.719116 731.565002
v 304.549988 690.422852 716.048340
v 305.894043 689.670959 723.550171
v 303.341309 697.659851 707.969849
v 305.148956 681.443726 720.248169
v 306.505310 681.442871 728.439636
v 308.565247 673.184814 730.539795
v 308.838257 665.324463 726.209778
v 305.607239 668.655640 717.796143
v 306.351379 660.984375 715.719055
v 304.009491 667.478149 708.235596
v 310.014008 650.856323 717.585571
v 305.891663 674.357422 723.765625
v 304.890961 649.811157 646.335083
v 305.193115 647.884827 635.024780
v 332.402283 736.038696 754.533569
v 338.897034 736.166870 764.572144
v 338.322388 747.281677 760.447815
v 330.826172 746.671753 748.045288
v 325.963654 735.260803 743.742676
v 326.277527 724.172241 749.863892
v 333.453735 724.397949 760.588379
v 315.753204 611.883179 698.239868
v 320.557495 609.091431 714.997131
v 320.865173 594.611450 707.861572
v 312.049133 611.081482 680.415649
v 314.661560 723.725220 725.813232
v 356.872009 779.126831 760.213989
v 365.381683 779.120178 769.641663
v 320.468384 710.732849 745.063843
v 326.859528 710.560242 755.930542
v 320.043884 723.755432 738.299072
v 345.935150 757.878052 764.358948
v 342.767517 725.999512 770.761169
v 301.933685 671.808594 663.173889
v 319.268005 625.400146 718.560303
v 318.261414 638.740417 728.105652
v 313.786072 638.309448 715.475586
v 325.095215 613.376892 731.884460
v 309.211243 639.700745 696.178955
v 374.847321 607.601562 779.757324
v 374.952026 596.123657 776.450500
v 325.608826 578.935974 710.838684
v 320.658508 579.325745 696.853882
v 325.775757 594.681213 720.034302
v 315.223694 556.548340 647.663757
v 329.864624 610.767456 745.296143
v 332.210724 597.089722 733.492798
v 338.233643 758.508362 754.001709
v 319.938782 568.098633 681.948364
v 315.318420 571.502686 662.820862
v 319.664978 554.746338 668.163330
v 324.657867 538.328369 675.455322
v 333.468811 710.474548 766.781860
v 324.998352 627.319214 738.780640
v 326.862091 563.790161 700.741699
v 420.805664 578.616638 -477.780029
v 337.091064 472.268311 675.125366
v 338.557678 486.283661 685.183044
v 331.683838 485.015411 666.523132
v 330.504669 471.731659 658.719543
v 342.027466 460.246765 686.237244
v 327.250122 540.023621 693.243958
v 329.943420 524.528809 684.600037
v 334.691132 522.821411 701.389893
v 326.330444 522.421387 663.761353
v 354.368408 767.475952 766.535767
v 346.398102 767.577698 756.460388
v 355.343048 757.065796 773.321716
v 345.689026 746.891785 770.546143
v 342.189819 506.863647 703.810425
v 335.032471 506.984528 688.396362
v 323.378601 554.434448 685.051636
v 318.454468 652.718323 739.162537
v 331.160065 581.834961 723.188354
v 336.935089 571.138184 731.094238
v 346.635681 485.193604 698.628052
v 339.734589 496.703247 693.189209
v 408.402039 188.702881 755.768372
v 319.307007 665.369019 745.472778
v 335.837769 458.003784 666.669312
v 343.353210 474.158997 687.428284
v 341.302612 445.296387 675.807068
v 334.834534 442.529907 653.729126
v 330.569489 442.161316 635.830017

vn -0.990498 -0.127135 0.046613
vn -0.997864 -0.022340 0.057583
vn -0.996434 -0.021574 0.078260
vn -0.997250 -0.028272 0.064270
vn -0.996593 -0.047560 0.063075
vn -0.998509 -0.027479 0.034955
vn -0.999295 0.004390 0.030782
vn -0.998655 -0.012796 0.045048
vn -0.999134 0.025826 0.028598
vn -0.998928 -0.001592 0.039555
vn -0.996924 0.030084 0.040181
vn -0.996442 0.026282 0.062157
vn -0.995660 -0.069625 0.041720
vn -0.989537 -0.119838 0.061558
vn -0.984830 -0.138503 0.093610
vn -0.978837 -0.149806 0.127495
vn -0.998446 -0.021070 0.050279
vn -0.998508 -0.026845 0.046655
vn -0.997039 -0.031114 0.026811
vn -0.999076 0.014380 0.034020
vn -0.998673 0.041410 0.024661
vn -0.986252 -0.148173 0.068720
vn -0.991224 -0.115674 0.015629
vn -0.994370 -0.093493 0.038584
vn -0.999593 0.019794 0.011186
vn -0.978891 -0.160994 0.121818
vn -0.984149 -0.142908 0.094227
vn -0.991647 -0.063977 0.090883
vn -0.994071 0.041295 0.000099
vn -0.999011 -0.016839 0.032863
vn -0.999491 0.017458 0.016557
vn -0.999742 -0.007933 0.010652
vn -0.999247 0.032928 0.012912
vn -0.998717 0.044437 0.013285
vn -0.999784 0.009226 0.000284
vn -0.999796 0.001043 0.002551
vn -0.999743 -0.011332 -0.000147
vn -0.999738 -0.014803 -0.010924
vn -0.999770 0.007916 -0.013319
vn -0.999511 0.028168 0.002621
vn -0.998549 0.046321 0.015490
vn -0.997969 0.056379 0.021926
vn -0.999623 0.017948 -0.010452
vn -0.998194 0.052223 0.024350
vn -0.896569 0.320769 0.278527
vn -0.862144 0.430532 0.254647
vn -0.829835 0.384765 0.390098
vn -0.827613 0.482648 0.253376
vn -0.800327 0.509206 0.286645
vn -0.864011 0.321206 0.359936
vn -0.854742 0.492296 0.149845
vn -0.879800 0.243365 0.402015
vn -0.998210 -0.042582 -0.025149
vn -0.998208 0.046490 0.022122
vn -0.997054 -0.053021 0.043175
vn -0.995200 -0.067107 0.055185
vn -0.975118 -0.139883 0.171224
vn -0.973519 -0.141747 0.178938
vn -0.968874 -0.156291 0.190398
vn -0.969248 -0.174981 0.166629
vn -0.976274 -0.145554 0.159905
vn -0.979840 -0.147143 0.133332
vn -0.980118 -0.152898 0.124818
vn -0.980171 -0.140187 0.138223
vn -0.960544 -0.214043 0.174478
vn -0.984773 -0.131597 0.110423
vn -0.990099 -0.113574 0.080147
vn -0.987884 -0.131574 0.080474
vn -0.988740 -0.128938 0.075495
vn -0.990576 -0.114005 0.072909
vn -0.989731 -0.123588 0.070381
vn -0.989973 -0.103402 0.093443
vn -0.983757 -0.120723 0.130987
vn -0.981820 -0.139107 0.126094
vn -0.986190 -0.130933 0.099933
vn -0.978802 -0.159073 0.121401
vn -0.980684 -0.169423 0.094809
vn -0.973580 -0.158630 0.157521
vn -0.967900 -0.166238 0.183260
vn -0.977498 -0.149259 0.139275
vn -0.991869 -0.108213 0.066027
vn -0.992469 -0.103567 0.062001
vn -0.989063 -0.122647 0.080438
vn -0.938001 0.248133 0.228439
vn -0.892401 0.304228 0.314189
vn -0.906507 0.326976 0.266885
vn -0.880812 0.283262 0.363881
vn -0.911448 0.287643 0.278572
vn -0.916884 0.322859 0.229347
vn -0.941816 0.220110 0.231517
vn -0.962542 0.148939 0.208907
vn -0.975835 0.073470 0.192297
vn -0.976005 0.096483 0.181909
vn -0.963351 0.125786 0.209133
vn -0.986808 -0.016389 0.154954
vn -0.941160 -0.032227 0.285568
vn -0.879495 -0.175519 0.421903
vn -0.898948 -0.233427 0.358890
vn -0.965000 -0.133956 0.202603
vn -0.940187 -0.230510 0.199662
vn -0.966026 -0.199532 0.108964
vn -0.912242 -0.295248 0.250808
vn -0.952939 -0.133332 0.239619
vn -0.996337 -0.072106 -0.017137
vn -0.999107 -0.033984 -0.002540
vn -0.834307 0.194209 0.514597
vn -0.787449 0.152829 0.592466
vn -0.800231 0.240989 0.541718
vn -0.856119 0.246092 0.447724
vn -0.861023 0.222387 0.455378
vn -0.840117 0.213544 0.496685
vn -0.792780 0.206213 0.567564
vn -0.959495 -0.158146 0.225497
vn -0.939116 -0.168224 0.293347
vn -0.930985 -0.184351 0.307628
vn -0.976071 -0.144259 0.150797
vn -0.907786 0.237641 0.339879
vn -0.677530 0.457639 0.575095
vn -0.633359 0.427911 0.641574
vn -0.844236 0.239289 0.475268
vn -0.830685 0.206085 0.516507
vn -0.870850 0.233429 0.430457
vn -0.685859 0.399891 0.599478
vn -0.740462 0.169402 0.645688
vn -0.988753 -0.131572 0.008693
vn -0.931599 -0.219114 0.275066
vn -0.900745 -0.283953 0.326146
vn -0.908029 -0.320151 0.261065
vn -0.912817 -0.207670 0.333241
vn -0.956955 -0.224458 0.149869
vn 0.000000 0.000000 0.000000
vn 0.000000 0.000000 0.000000
vn -0.896328 -0.222884 0.376193
vn -0.938377 -0.218062 0.256491
vn -0.881209 -0.241635 0.399075
vn -0.962266 -0.216126 0.160826
vn 0.000000 0.000000 0.000000
vn -0.862656 -0.255197 0.431886
vn -0.785240 0.376674 0.473459
vn -0.946760 -0.208822 0.235812
vn -0.961755 -0.191291 0.195940
vn -0.959359 -0.204783 0.192574
vn -0.959656 -0.217999 0.174447
vn -0.780673 0.251117 0.566434
vn -0.927428 -0.220421 0.296412
vn -0.928964 -0.212479 0.290521
vn 0.000000 0.000000 0.000000
vn -0.907334 -0.122592 0.387311
vn -0.874091 -0.223990 0.424057
vn -0.927778 -0.154992 0.334664
vn -0.923286 -0.155949 0.348399
vn -0.936389 -0.038535 0.321256
vn -0.952393 -0.205247 0.206792
vn -0.946051 -0.248736 0.203796
vn -0.908529 -0.284493 0.290313
vn -0.958138 -0.193867 0.203396
vn -0.653676 0.434836 0.614191
vn -0.691837 0.468653 0.549118
vn -0.613949 0.392541 0.684791
vn -0.727934 0.254854 0.620459
vn -0.859636 -0.279661 0.422839
vn -0.913445 -0.222020 0.323121
vn -0.956544 -0.166598 0.230480
vn -0.886979 -0.247595 0.382883
vn -0.875557 -0.213730 0.430387
vn -0.893283 -0.178263 0.411325
vn -0.871867 -0.181204 0.410230
vn -0.861530 -0.246494 0.440849
vn 0.000000 0.000000 0.000000
vn -0.844330 -0.173862 0.496564
vn -0.933229 -0.158848 0.319146
vn -0.888759 -0.092291 0.403486
vn -0.934367 -0.181471 0.306435
vn -0.935451 -0.189082 0.298628
vn 0.000000 0.000000 0.000000


g Scans/FullVolium/meshes/FullVolium.000633
usemtl Scans/FullVolium/meshes/FullVolium.000633
s

f 86//86 84//84 85//85
f 46//46 47//47 48//48
f 98//98 97//97 103//103
f 89//89 84//84 86//86
f 88//88 89//89 86//86
f 88//88 86//86 87//87
f 46//46 50//50 47//47
f 103//103 97//97 96//96
f 103//103 96//96 95//95
f 91//91 85//85 84//84
f 99//99 98//98 103//103
f 92//92 93//93 90//90
f 93//93 95//95 96//96
f 92//92 95//95 93//93
f 46//46 45//45 50//50
f 63//63 62//62 75//75
f 60//60 58//58 59//59
f 6//6 4//4 5//5
f 84//84 89//89 90//90
f 91//91 93//93 96//96
f 101//101 100//100 99//99
f 51//51 45//45 46//46
f 64//64 80//80 78//78
f 63//63 61//61 62//62
f 63//63 64//64 61//61
f 3//3 28//28 5//5
f 3//3 5//5 4//4
f 2//2 3//3 4//4
f 57//57 64//64 78//78
f 8//8 2//2 4//4
f 45//45 52//52 50//50
f 20//20 30//30 17//17
f 17//17 19//19 18//18
f 84//84 93//93 91//91
f 84//84 90//90 93//93
f 57//57 58//58 61//61
f 57//57 61//61 64//64
f 10//10 17//17 18//18
f 10//10 20//20 17//17
f 79//79 57//57 78//78
f 7//7 8//8 4//4
f 68//68 69//69 67//67
f 44//44 20//20 21//21
f 66//66 73//73 74//74
f 25//25 9//9 7//7
f 21//21 10//10 9//9
f 21//21 20//20 10//10
f 13//13 6//6 5//5
f 33//33 21//21 9//9
f 33//33 9//9 25//25
f 11//11 18//18 19//19
f 69//69 70//70 67//67
f 2//2 12//12 3//3
f 94//94 92//92 90//90
f 8//8 7//7 9//9
f 8//8 9//9 10//10
f 18//18 8//8 10//10
f 34//34 44//44 21//21
f 34//34 21//21 33//33
f 7//7 4//4 6//6
f 44//44 34//34 42//42
f 66//66 63//63 75//75
f 66//66 74//74 63//63
f 72//72 73//73 66//66
f 123//123 158//158 139//139
f 35//35 34//34 33//33
f 35//35 40//40 34//34
f 72//72 67//67 70//70
f 123//123 159//159 157//157
f 44//44 54//54 31//31
f 44//44 42//42 54//54
f 39//39 43//43 40//40
f 39//39 40//40 35//35
f 74//74 80//80 64//64
f 74//74 64//64 63//63
f 111//111 112//112 106//106
f 66//66 67//67 72//72
f 11//11 12//12 2//2
f 107//107 160//160 108//108
f 18//18 11//11 2//2
f 18//18 2//2 8//8
f 110//110 111//111 106//106
f 38//38 35//35 36//36
f 38//38 39//39 35//35
f 37//37 105//105 53//53
f 85//85 87//87 86//86
f 112//112 107//107 106//106
f 76//76 75//75 62//62
f 123//123 108//108 160//160
f 123//123 139//139 108//108
f 40//40 42//42 34//34
f 40//40 41//41 42//42
f 112//112 124//124 107//107
f 139//139 109//109 108//108
f 43//43 41//41 40//40
f 33//33 25//25 36//36
f 33//33 36//36 35//35
f 27//27 15//15 14//14
f 120//120 122//122 87//87
f 100//100 98//98 99//99
f 29//29 12//12 11//11
f 159//159 123//123 160//160
f 99//99 103//103 95//95
f 108//108 106//106 107//107
f 108//108 109//109 106//106
f 71//71 81//81 83//83
f 158//158 123//123 157//157
f 110//110 106//106 109//109
f 31//31 30//30 20//20
f 31//31 20//20 44//44
f 32//32 30//30 31//31
f 32//32 55//55 30//30
f 65//65 60//60 59//59
f 110//110 122//122 111//111
f 23//23 24//24 1//1
f 25//25 37//37 36//36
f 47//47 50//50 52//52
f 51//51 46//46 48//48
f 117//117 88//88 87//87
f 117//117 87//87 122//122
f 118//118 158//158 157//157
f 168//168 161//161 162//162
f 120//120 121//121 111//111
f 120//120 111//111 122//122
f 149//149 167//167 168//168
f 13//13 27//27 14//14
f 121//121 144//144 112//112
f 121//121 112//112 111//111
f 167//167 149//149 172//172
f 157//157 119//119 118//118
f 12//12 28//28 3//3
f 67//67 75//75 68//68
f 67//67 66//66 75//75
f 149//149 148//148 172//172
f 61//61 58//58 60//60
f 49//49 48//48 47//47
f 148//148 152//152 172//172
f 88//88 90//90 89//89
f 57//57 59//59 58//58
f 135//135 115//115 133//133
f 135//135 133//133 165//165
f 127//127 128//128 126//126
f 120//120 87//87 85//85
f 28//28 26//26 27//27
f 155//155 162//162 161//161
f 71//71 69//69 68//68
f 148//148 150//150 151//151
f 154//154 162//162 155//155
f 133//133 134//134 146//146
f 129//129 126//126 114//114
f 101//101 99//99 95//95
f 114//114 115//115 135//135
f 144//144 124//124 112//112
f 83//83 69//69 71//71
f 134//134 133//133 115//115
f 14//14 15//15 16//16
f 82//82 55//55 56//56
f 56//56 81//81 82//82
f 13//13 5//5 28//28
f 13//13 28//28 27//27
f 76//76 77//77 22//22
f 171//171 148//148 151//151
f 150//150 148//148 149//149
f 82//82 1//1 24//24
f 73//73 80//80 74//74
f 113//113 115//115 114//114
f 153//153 143//143 154//154
f 76//76 62//62 61//61
f 76//76 68//68 75//75
f 76//76 22//22 68//68
f 102//102 98//98 100//100
f 101//101 102//102 100//100
f 79//79 59//59 57//57
f 122//122 110//110 52//52
f 143//143 153//153 163//163
f 143//143 163//163 142//142
f 19//19 17//17 30//30
f 94//94 95//95 92//92
f 156//156 154//154 143//143
f 153//153 154//154 155//155
f 117//117 122//122 52//52
f 145//145 127//127 126//126
f 145//145 126//126 129//129
f 41//41 54//54 42//42
f 71//71 68//68 22//22
f 71//71 22//22 1//1
f 54//54 32//32 31//31
f 29//29 11//11 19//19
f 29//29 19//19 23//23
f 140//140 142//142 163//163
f 140//140 141//141 142//142
f 104//104 13//13 14//14
f 38//38 36//36 37//37
f 130//130 128//128 102//102
f 109//109 52//52 110//110
f 109//109 47//47 52//52
f 127//127 102//102 128//128
f 53//53 105//105 104//104
f 56//56 55//55 32//32
f 27//27 16//16 15//15
f 23//23 1//1 22//22
f 160//160 107//107 124//124
f 105//105 13//13 104//104
f 105//105 6//6 13//13
f 71//71 82//82 81//81
f 71//71 1//1 82//82
f 165//165 138//138 135//135
f 37//37 25//25 7//7
f 136//136 142//142 141//141
f 24//24 55//55 82//82
f 167//167 161//161 168//168
f 79//79 78//78 80//80
f 136//136 60//60 65//65
f 140//140 163//163 146//146
f 140//140 146//146 134//134
f 129//129 135//135 138//138
f 129//129 114//114 135//135
f 83//83 70//70 69//69
f 51//51 48//48 49//49
f 170//170 98//98 164//164
f 170//170 97//97 98//98
f 162//162 149//149 168//168
f 173//173 171//171 174//174
f 24//24 23//23 19//19
f 139//139 47//47 109//109
f 76//76 61//61 60//60
f 171//171 173//173 152//152
f 171//171 152//152 148//148
f 133//133 166//166 165//165
f 159//159 119//119 157//157
f 164//164 102//102 127//127
f 164//164 98//98 102//102
f 153//153 146//146 163//163
f 43//43 39//39 38//38
f 117//117 52//52 45//45
f 142//142 136//136 65//65
f 156//156 65//65 59//59
f 113//113 114//114 126//126
f 38//38 37//37 53//53
f 145//145 164//164 127//127
f 166//166 138//138 165//165
f 170//170 96//96 97//97
f 116//116 16//16 27//27
f 116//116 27//27 26//26
f 130//130 126//126 128//128
f 139//139 49//49 47//47
f 23//23 22//22 77//77
f 167//167 172//172 152//152
f 130//130 113//113 126//126
f 143//143 142//142 65//65
f 143//143 65//65 156//156
f 117//117 90//90 88//88
f 174//174 171//171 151//151
f 130//130 102//102 101//101
f 113//113 134//134 115//115
f 113//113 16//16 116//116
f 113//113 130//130 16//16
f 156//156 162//162 154//154
f 117//117 94//94 90//90
f 156//156 59//59 79//79
f 162//162 150//150 149//149
f 125//125 53//53 104//104
f 141//141 140//140 134//134
f 136//136 76//76 60//60
f 136//136 77//77 76//76
f 116//116 134//134 113//113
f 156//156 150//150 162//162
f 125//125 104//104 14//14
f 125//125 130//130 101//101
f 37//37 6//6 105//105
f 6//6 37//37 7//7
f 55//55 19//19 30//30
f 55//55 24//24 19//19
f 130//130 14//14 16//16
f 14//14 130//130 125//125
